<?xml version="1.0" encoding="UTF-8"?>
<svg width="64" height="64" viewBox="0 0 64 64" fill="none" xmlns="http://www.w3.org/2000/svg">
  <defs>
    <linearGradient id="g" x1="8" y1="8" x2="56" y2="56" gradientUnits="userSpaceOnUse">
      <stop stop-color="#6366F1"/>
      <stop offset="1" stop-color="#9333EA"/>
    </linearGradient>
    <filter id="s" x="0" y="0" width="64" height="64" filterUnits="userSpaceOnUse" color-interpolation-filters="sRGB">
      <feDropShadow dx="0" dy="1" stdDeviation="1" flood-color="#000" flood-opacity="0.15"/>
    </filter>
  </defs>

  <rect x="4" y="4" width="56" height="56" rx="14" fill="url(#g)" filter="url(#s)"/>

  <!-- Rocket body -->
  <g transform="translate(0,2)">
    <path d="M32 10c6.5 6.4 10 15 10 25-6 0-10 3.2-10 8 0-4.8-4-8-10-8 0-10 3.5-18.6 10-25z" fill="#FFFFFF"/>
    <!-- Window -->
    <circle cx="32" cy="24" r="4" fill="#7DD3FC" stroke="#FFFFFF" stroke-width="2"/>
    <!-- Left fin -->
    <path d="M21 38l7 4-7 7v-11z" fill="#FFFFFF" opacity="0.95"/>
    <!-- Right fin -->
    <path d="M43 38l-7 4 7 7v-11z" fill="#FFFFFF" opacity="0.95"/>
    <!-- Flame -->
    <path d="M32 42c2.8 2.6 3.5 6.4 0 9-3.5-2.6-2.8-6.4 0-9z" fill="#FBBF24"/>
  </g>
</svg>
